<svg width="25" height="25" viewBox="0 0 25 25" fill="none" xmlns="http://www.w3.org/2000/svg">
<path d="M6.83594 16.693V14.8195C6.83594 14.4961 6.57344 14.2336 6.25 14.2336C5.92656 14.2336 5.66406 14.4961 5.66406 14.8195V16.693C4.75469 16.957 4.10156 17.782 4.10156 18.7602C4.10156 19.9469 5.06328 20.9086 6.25 20.9086C7.43672 20.9086 8.39844 19.9469 8.39844 18.7602C8.39844 17.782 7.74531 16.957 6.85078 16.6969L6.83594 16.693ZM23.1492 13.1172L19.9906 14.8727L15.8805 12.5L19.9883 10.1281L23.1539 11.8836C23.2359 11.9297 23.3336 11.957 23.4375 11.957C23.7609 11.957 24.0234 11.6945 24.0234 11.3711C24.0234 11.1516 23.9031 10.9602 23.7242 10.8602L23.7211 10.8586L21.1719 9.44454L23.207 8.26954C23.3883 8.16719 23.5078 7.97657 23.5078 7.75782C23.5078 7.43438 23.2453 7.17188 22.9219 7.17188C22.8109 7.17188 22.707 7.20313 22.618 7.25626L22.6203 7.25469L20.5875 8.42813L20.6336 5.51485C20.6336 5.51251 20.6336 5.50938 20.6336 5.50626C20.6336 5.18594 20.3766 4.92501 20.057 4.91954C20.0523 4.91954 20.0453 4.91954 20.0398 4.91954C19.7211 4.91954 19.4625 5.17735 19.4609 5.4961L19.4039 9.11016L15.2922 11.4836V6.73985L18.3961 4.88047C18.5672 4.77657 18.6797 4.59063 18.6797 4.37813C18.6797 4.05469 18.4172 3.79219 18.0938 3.79219C17.9836 3.79219 17.8797 3.82266 17.7914 3.87579L17.7937 3.87422L15.2914 5.37344V3.02344C15.2914 2.70001 15.0289 2.43751 14.7055 2.43751C14.382 2.43751 14.1195 2.70001 14.1195 3.02344V5.37188L11.6234 3.87266C11.5375 3.82032 11.4336 3.78907 11.3219 3.78907C10.9984 3.78907 10.7367 4.05157 10.7367 4.37422C10.7367 4.58594 10.8492 4.77188 11.018 4.87501L11.0203 4.87657L14.1195 6.73829V11.4828L9.95859 9.08047V4.69141C9.95859 -0.188275 2.53672 -0.188275 2.53672 4.69141V15.0336C1.57578 15.9859 0.980469 17.307 0.980469 18.7664C0.980469 21.6688 3.33359 24.0219 6.23516 24.0219C8.30156 24.0219 10.0891 22.8297 10.9477 21.0953L10.9617 21.0648C11.057 21.1492 11.1812 21.2031 11.3187 21.2086H11.3195C11.4305 21.2086 11.5344 21.1774 11.6227 21.1234L11.6203 21.125L14.1195 19.6242V21.975C14.1195 22.2984 14.382 22.5609 14.7055 22.5609C15.0289 22.5609 15.2914 22.2984 15.2914 21.975V19.625L17.7922 21.1219C17.8781 21.1742 17.982 21.2047 18.093 21.2047C18.4164 21.2047 18.6781 20.943 18.6781 20.6195C18.6781 20.407 18.5648 20.2219 18.3961 20.1188L18.3938 20.1172L15.2914 18.2602V13.5133L19.3984 15.8852L19.4617 19.5055C19.468 19.8242 19.7281 20.0805 20.0477 20.0805H20.0586C20.3773 20.0742 20.6336 19.8141 20.6336 19.4945C20.6336 19.4906 20.6336 19.4875 20.6336 19.4836V19.4844L20.5828 16.5695L22.6188 17.7453C22.7023 17.7945 22.8039 17.8234 22.9109 17.8234C23.1273 17.8234 23.3156 17.707 23.418 17.5336L23.4195 17.5305C23.4688 17.4461 23.4977 17.3453 23.4977 17.2375C23.4977 17.0211 23.3805 16.8328 23.207 16.7313L23.2039 16.7297L21.1719 15.5563L23.7164 14.1414C23.8977 14.0391 24.0172 13.8484 24.0172 13.6289C24.0172 13.3047 23.7547 13.0422 23.4305 13.0422C23.3258 13.0422 23.2273 13.0695 23.1422 13.118L23.1453 13.1164L23.1492 13.1172ZM13.5352 12.5L9.96094 14.5633V10.4359L13.5352 12.5ZM6.25 22.8516C3.98437 22.8516 2.14844 21.0149 2.14844 18.7492C2.14844 17.5359 2.675 16.4461 3.51172 15.6953L3.51562 15.6922L3.52031 15.6828C3.62187 15.5875 3.68828 15.4563 3.70078 15.3102V15.3078C3.70156 15.2969 3.70625 15.2891 3.70703 15.2781L3.71172 15.2555V4.69297C3.70937 4.65157 3.70781 4.60313 3.70781 4.55391C3.70781 3.22266 4.78672 2.14376 6.11797 2.14376C6.16484 2.14376 6.21172 2.14532 6.25781 2.14766H6.25156C6.29141 2.14532 6.33828 2.14376 6.38437 2.14376C7.71562 2.14376 8.79453 3.22266 8.79453 4.55391C8.79453 4.60313 8.79297 4.65157 8.78984 4.69922V4.69297V15.2555L8.79453 15.2781C8.79453 15.2891 8.79922 15.2969 8.80078 15.3078C8.81328 15.4563 8.87969 15.5875 8.98047 15.682L8.98516 15.6914C9.82578 16.4461 10.3523 17.5359 10.3523 18.7484C10.3523 21.0141 8.51641 22.85 6.25078 22.8508L6.25 22.8516ZM11.3883 19.9C11.4742 19.5469 11.5234 19.1422 11.5234 18.7258C11.5234 17.5524 11.1328 16.4703 10.475 15.6024L10.4844 15.6156L14.1219 13.5156V18.2586L11.3883 19.9Z" fill="black"/>
</svg>
