<svg width="25" height="25" viewBox="0 0 25 25" fill="none" xmlns="http://www.w3.org/2000/svg">
<path d="M15.6319 3.39175C17.5503 2.97643 19.9303 2.99719 23.1691 3.80488C23.7272 3.94405 24.0665 4.50824 23.927 5.06501C23.7875 5.62178 23.222 5.96031 22.6639 5.82114C19.6527 5.07023 17.6057 5.09112 16.0738 5.42278C14.537 5.75546 13.4323 6.41528 12.262 7.12878L12.1744 7.18223C11.0463 7.87047 9.79705 8.6326 8.14661 8.90697C6.43475 9.19154 4.41254 8.93995 1.69672 7.85612C1.16259 7.64296 0.902805 7.0382 1.11648 6.50535C1.33014 5.97249 1.93636 5.71333 2.47049 5.92649C4.96288 6.92115 6.58643 7.05937 7.80419 6.85693C9.04052 6.65141 9.98307 6.08246 11.1756 5.35541C12.349 4.64005 13.7181 3.80604 15.6319 3.39175Z" fill="#0F0F0F"/>
<path d="M23.1691 7.96149C19.9303 7.15381 17.5503 7.13305 15.6319 7.54836C13.7181 7.96266 12.349 8.79666 11.1756 9.51202C9.98307 10.2391 9.04052 10.808 7.80419 11.0135C6.58643 11.2159 4.96288 11.0777 2.47049 10.0831C1.93636 9.86994 1.33014 10.1291 1.11648 10.662C0.902805 11.1948 1.16259 11.7996 1.69672 12.0127C4.41254 13.0966 6.43475 13.3481 8.14661 13.0635C9.79705 12.7892 11.0463 12.0271 12.1744 11.3389L12.262 11.2854C13.4323 10.5719 14.537 9.91207 16.0738 9.57939C17.6057 9.24772 19.6527 9.22685 22.6639 9.97775C23.222 10.1169 23.7875 9.7784 23.927 9.22162C24.0665 8.66485 23.7272 8.10066 23.1691 7.96149Z" fill="#0F0F0F"/>
<path fill-rule="evenodd" clip-rule="evenodd" d="M19.7914 10.4444C19.4298 10.4444 19.1284 10.6311 18.9181 10.9137C18.8443 11.0135 18.6735 11.2471 18.4468 11.5739C18.1451 12.0086 17.7413 12.6127 17.3358 13.287C16.9323 13.9579 16.5159 14.7167 16.1974 15.458C15.8924 16.168 15.6238 16.9389 15.6249 17.7205C15.6256 17.9399 15.6519 18.1603 15.6879 18.3762C15.7481 18.7367 15.8704 19.2329 16.1254 19.7418C16.3825 20.2548 16.7845 20.7994 17.407 21.2133C18.036 21.6317 18.8279 21.875 19.7914 21.875C20.755 21.875 21.5469 21.6317 22.1758 21.2133C22.7983 20.7994 23.2004 20.2548 23.4575 19.7419C23.7125 19.2329 23.8349 18.7367 23.8951 18.3763C23.9312 18.1601 23.9578 17.9391 23.9581 17.7195C23.9584 16.9379 23.6906 16.1681 23.3855 15.458C23.0671 14.7167 22.6507 13.9579 22.2472 13.287C21.8417 12.6127 21.4378 12.0086 21.1361 11.5739C20.9094 11.2471 20.7385 11.0135 20.6648 10.9137C20.4545 10.6311 20.153 10.4444 19.7914 10.4444ZM21.4707 16.2768C21.2033 15.6543 20.8384 14.9842 20.4607 14.3562C20.231 13.9744 20.0007 13.6148 19.7914 13.2994C19.5822 13.6148 19.3519 13.9744 19.1222 14.3562C18.7446 14.9842 18.3797 15.6543 18.1123 16.2768L18.0971 16.312C17.913 16.74 17.6955 17.246 17.7084 17.7188C17.7209 18.0928 17.8217 18.4788 17.9888 18.8124C18.1223 19.0788 18.3062 19.3136 18.5626 19.4842C18.8125 19.6503 19.1925 19.7967 19.7914 19.7967C20.3904 19.7967 20.7704 19.6503 21.0203 19.4842C21.2767 19.3136 21.4606 19.0787 21.5942 18.8124C21.7613 18.4788 21.8621 18.0928 21.8746 17.7187C21.8876 17.2461 21.67 16.7401 21.4859 16.3122L21.4707 16.2768Z" fill="#0F0F0F"/>
<path d="M14.7183 12.0113C15.5103 11.7549 16.1175 12.5792 15.7451 13.3221C15.575 13.6616 15.3837 13.9504 15.0032 14.0848C13.9854 14.4444 13.1423 14.9507 12.262 15.4874L12.1744 15.5408C11.0463 16.2291 9.79705 16.9912 8.14661 17.2655C6.43475 17.5501 4.41255 17.2986 1.69672 16.2147C1.16259 16.0016 0.902808 15.3968 1.11648 14.864C1.33015 14.3311 1.93636 14.0719 2.4705 14.2851C4.96288 15.2797 6.58643 15.4179 7.80418 15.2155C9.04052 15.01 9.98307 14.4411 11.1756 13.714C12.309 13.023 13.4753 12.4137 14.7183 12.0113Z" fill="#0F0F0F"/>
</svg>
