<svg width="70" height="70" viewBox="0 0 70 70" fill="none" xmlns="http://www.w3.org/2000/svg">
<path fill-rule="evenodd" clip-rule="evenodd" d="M51.0833 48.2917C51.0833 57.1513 43.9013 64.3333 35.0417 64.3333C26.1821 64.3333 19 57.1513 19 48.2917C19 43.2272 21.3469 38.711 25.0124 35.771C25.7814 35.1541 26.2917 34.25 26.2917 33.2641V14.75C26.2917 9.91752 30.209 6 35.0417 6C39.8743 6 43.7917 9.91752 43.7917 14.75V33.2641C43.7917 34.25 44.3018 35.1541 45.0709 35.771C48.7366 38.711 51.0833 43.2272 51.0833 48.2917ZM35.0417 12.5625C36.2497 12.5625 37.2292 13.5419 37.2292 14.75V39.1928C37.2292 40.4668 38.0963 41.5472 39.1483 42.2655C41.0713 43.5786 42.3333 45.7877 42.3333 48.2917C42.3333 52.3187 39.0687 55.5833 35.0417 55.5833C31.0146 55.5833 27.75 52.3187 27.75 48.2917C27.75 45.7877 29.0121 43.5786 30.935 42.2655C31.987 41.5472 32.8542 40.4668 32.8542 39.1928V14.75C32.8542 13.5419 33.8336 12.5625 35.0417 12.5625Z" fill="#292D32"/>
</svg>
