<svg width="25" height="25" viewBox="0 0 25 25" fill="none" xmlns="http://www.w3.org/2000/svg">
<path d="M2.08331 13.6458L4.68748 12.0833C6.29165 11.125 8.29165 11.125 9.89581 12.0833C11.5 13.0417 13.5 13.0417 15.1041 12.0833C16.7083 11.125 18.7083 11.125 20.3125 12.0833L22.9166 13.6458" stroke="#292D32" stroke-width="2" stroke-miterlimit="10" stroke-linecap="round" stroke-linejoin="round"/>
<path d="M2.08331 4.06252L4.68748 5.62502C6.29165 6.58335 8.29165 6.58335 9.89581 5.62502C11.5 4.66668 13.5 4.66668 15.1041 5.62502C16.7083 6.58335 18.7083 6.58335 20.3125 5.62502L22.9166 4.06252" stroke="#292D32" stroke-width="2" stroke-miterlimit="10" stroke-linecap="round" stroke-linejoin="round"/>
<path d="M2.08331 20.9375L4.68748 19.375C6.29165 18.4167 8.29165 18.4167 9.89581 19.375C11.5 20.3333 13.5 20.3333 15.1041 19.375C16.7083 18.4167 18.7083 18.4167 20.3125 19.375L22.9166 20.9375" stroke="#292D32" stroke-width="2" stroke-miterlimit="10" stroke-linecap="round" stroke-linejoin="round"/>
</svg>
